<svg xmlns="http://www.w3.org/2000/svg" viewBox="0 0 6.4635201 7.9369669" width="6.4635mm" version="1.1" height="7.937mm">
<path d="m3.2918 0.56629h-0.1746c-0.0933 0-0.16895-0.0756-0.16895-0.16895v-0.005c0.0001-0.21669-0.1756-0.39234-0.3923-0.39234h-0.009c-0.2167 0-0.3923 0.17565-0.3923 0.39233v0.005c0 0.0933-0.0756 0.16895-0.16895 0.16895h-0.1746c-0.186 0-0.33679 0.15079-0.33679 0.33678v0.007c0 0.18601 0.15079 0.33678 0.33679 0.33678h1.481c0.186 0 0.33678-0.15077 0.33678-0.33678v-0.007c-0.0001-0.18595-0.1509-0.33673-0.3369-0.33673zm-0.74046 0c-0.094 0-0.1701-0.0762-0.1701-0.1701s0.0762-0.1701 0.1701-0.1701 0.17008 0.0762 0.17008 0.1701-0.0762 0.1701-0.17008 0.1701zm0.7573 6.5769h-2.855c-0.25054 0-0.4536-0.2031-0.4536-0.4536v-5.443c0-0.25045 0.20306-0.45353 0.34017-0.45353h0.91897c-0.008 0.0377-0.0118 0.0767-0.0118 0.11683 0 0.31075 0.25282 0.56356 0.56359 0.56356h1.4809c0.31079 0 0.56359-0.25281 0.56359-0.57043 0-0.0377-0.004-0.0744-0.0111-0.10996h0.69149c0.3639 0 0.56698 0.20308 0.56698 0.45358v3.4076c-0.0377-0.00201-0.0752-0.005-0.1134-0.005-0.15686 0-0.30831 0.022101-0.45358 0.0597v-2.6679h-3.9688v4.5358h2.6138c0.0124 0.19932 0.056 0.3901 0.12785 0.56698zm1.6808-2.1545c-0.81414 0-1.4741 0.66-1.4741 1.4741 0 0.81413 0.65999 1.4742 1.4741 1.4742 0.81415 0 1.4741-0.66 1.4741-1.4741 0-0.81413-0.66-1.4741-1.4741-1.4741zm0.9632 1.1713-0.9071 1.0205c-0.0447 0.0503-0.10692 0.0761-0.1696 0.0761-0.0497 0-0.0998-0.016301-0.14158-0.0497l-0.567-0.4536c-0.0978-0.0782-0.11367-0.22092-0.0354-0.31872 0.0782-0.0979 0.22097-0.11372 0.31876-0.0354l0.3988 0.319 0.7641-0.8596c0.0831-0.0936 0.22651-0.1021 0.32015-0.018799 0.0936 0.0833 0.10206 0.22656 0.0188 0.32024zm-1.9838-2.1919h-1.8143c-0.0626 0-0.1134-0.0508-0.1134-0.1134v-0.1134c0-0.0626 0.0508-0.11338 0.1134-0.11338h1.8143c0.0626 0 0.11341 0.0508 0.11341 0.11338v0.11341c-0.00001 0.0626-0.0508 0.1134-0.11341 0.1134zm0-1.0206h-1.8143c-0.0626 0-0.1134-0.0508-0.1134-0.1134v-0.1133c0-0.0626 0.0508-0.11339 0.1134-0.11339h1.8143c0.0626 0 0.11341 0.0508 0.11341 0.11339v0.1134c0 0.0626-0.0508 0.1134-0.1134 0.1134zm-0.567 1.9278h-1.2473c-0.0626 0-0.1134-0.0508-0.1134-0.11341v-0.1134c0-0.0626 0.0508-0.1134 0.1134-0.1134h1.2474c0.0626 0 0.1134 0.0508 0.1134 0.1134v0.1134c-0.00001 0.0626-0.0508 0.11341-0.1134 0.11341zm-0.2267 1.0206h-1.0206c-0.0626 0-0.1134-0.0508-0.1134-0.1134v-0.1134c0-0.0626 0.0508-0.11339 0.1134-0.11339h1.0206c0.0626 0 0.1134 0.0508 0.1134 0.11339v0.1134c-0.00001 0.0626-0.0508 0.1134-0.1134 0.1134zm-1.3511-3.3677-0.4176 0.4699c-0.0206 0.023101-0.0492 0.0351-0.0781 0.0351-0.0229 0-0.0459-0.008-0.0651-0.0229l-0.261-0.20882c-0.045-0.036-0.0523-0.10169-0.0163-0.14673 0.036-0.0451 0.10173-0.0523 0.14675-0.0163l0.1836 0.1468 0.3518-0.3958c0.0383-0.0431 0.10429-0.047 0.14739-0.009 0.0431 0.0384 0.047 0.1043 0.009 0.14743zm0 1.0089-0.41762 0.46983c-0.0206 0.023101-0.0492 0.0351-0.0781 0.0351-0.0229 0-0.0459-0.008-0.0651-0.0229l-0.261-0.20882c-0.045-0.036-0.0523-0.10169-0.0163-0.14672 0.036-0.0451 0.10173-0.0523 0.14675-0.0163l0.1836 0.1469 0.3518-0.3958c0.0383-0.0431 0.10429-0.047 0.14739-0.009 0.0431 0.0384 0.047 0.10432 0.009 0.14743zm0 0.96485-0.41762 0.46981c-0.0206 0.023101-0.0492 0.035-0.0781 0.035-0.0229 0-0.0459-0.008-0.0651-0.0229l-0.261-0.20881c-0.045-0.036-0.0523-0.10171-0.0163-0.14672 0.036-0.0451 0.10173-0.0523 0.14675-0.0163l0.18359 0.14687 0.35178-0.39575c0.0383-0.0431 0.10429-0.047 0.14739-0.009 0.0431 0.0384 0.047 0.10431 0.009 0.14745zm0 0.97163-0.41762 0.46983c-0.0206 0.023201-0.0492 0.035-0.0781 0.035-0.0229 0-0.0459-0.007-0.0651-0.0229l-0.261-0.20881c-0.045-0.036-0.0523-0.1017-0.0163-0.14672 0.036-0.0451 0.10173-0.0523 0.14675-0.016301l0.1836 0.1468 0.3518-0.3957c0.0383-0.0431 0.10429-0.047 0.14739-0.009 0.0431 0.0384 0.047 0.1043 0.009 0.14743z" fill="currentColor"/>
</svg>
