<?xml version="1.0" encoding="UTF-8" standalone="no"?>
<svg
   xmlns:dc="http://purl.org/dc/elements/1.1/"
   xmlns:cc="http://creativecommons.org/ns#"
   xmlns:rdf="http://www.w3.org/1999/02/22-rdf-syntax-ns#"
   xmlns:svg="http://www.w3.org/2000/svg"
   xmlns="http://www.w3.org/2000/svg"
   id="svg31483"
   version="1.1"
   viewBox="0 0 6.4635201 7.9369669"
   height="7.9369669mm"
   width="6.4635201mm">
  <defs
     id="defs31477" />
  <metadata
     id="metadata31480">
    <rdf:RDF>
      <cc:Work
         rdf:about="">
        <dc:format>image/svg+xml</dc:format>
        <dc:type
           rdf:resource="http://purl.org/dc/dcmitype/StillImage" />
        <dc:title></dc:title>
      </cc:Work>
    </rdf:RDF>
  </metadata>
  <path
     d="M 3.29185,0.56629 H 3.11722 c -0.0933,0 -0.16895,-0.0756 -0.16895,-0.16895 v -0.005 C 2.94827,0.17565 2.77261,0 2.55591,0 h -0.009 C 2.33022,0 2.15456,0.17565 2.15456,0.39233 v 0.005 c 0,0.0933 -0.0756,0.16895 -0.16895,0.16895 H 1.81098 c -0.186,0 -0.33679,0.15079 -0.33679,0.33678 v 0.007 c 0,0.18601 0.15079,0.33678 0.33679,0.33678 h 1.48095 c 0.186,0 0.33678,-0.15077 0.33678,-0.33678 v -0.007 C 3.6287,0.71707 3.47792,0.56629 3.29192,0.56629 Z m -0.74046,0 c -0.094,0 -0.1701,-0.0762 -0.1701,-0.1701 0,-0.0939 0.0762,-0.1701 0.1701,-0.1701 0.0939,0 0.17008,0.0762 0.17008,0.1701 0,0.0939 -0.0762,0.1701 -0.17008,0.1701 z M 3.30864,7.143197 H 0.45357 C 0.20306,7.143197 0,6.9401272 0,6.6896271 V 1.24665 C 0,0.99615 0.20306,0.79307 0.34017,0.79307 h 0.91897 c -0.008,0.0377 -0.0118,0.0767 -0.0118,0.11683 0,0.31075 0.25282,0.56356 0.56359,0.56356 h 1.480899 c 0.310791,0 0.563591,-0.25281 0.563591,-0.57043 0,-0.0377 -0.004,-0.0744 -0.0111,-0.10996 h 0.691489 c 0.3639,0 0.566981,0.20308 0.566981,0.45358 v 3.4076 c -0.0377,-0.00201 -0.0752,-0.005 -0.113401,-0.005 -0.156859,0 -0.30831,0.022101 -0.45358,0.0597 V 2.04114 h -3.96884 v 4.5358071 h 2.61384 c 0.0124,0.1993199 0.056,0.3900999 0.12785,0.5669799 z M 4.98938,4.9886902 c -0.81414,0 -1.47413,0.6599967 -1.47413,1.4741268 0,0.8141301 0.65999,1.4741501 1.47413,1.4741501 0.81415,0 1.47414,-0.6599999 1.47414,-1.47413 0,-0.81413 -0.66,-1.4741469 -1.47414,-1.4741469 z M 5.95262,6.1599569 5.04546,7.180507 c -0.0447,0.0503 -0.10692,0.0761 -0.1696,0.0761 -0.0497,0 -0.0998,-0.016301 -0.14158,-0.0497 L 4.16731,6.7533372 c -0.0978,-0.0782 -0.11367,-0.2209202 -0.0354,-0.31872 0.0782,-0.0979 0.22097,-0.11372 0.31876,-0.0354 L 4.84949,6.7182471 5.61363,5.858597 c 0.0831,-0.0936 0.22651,-0.1021 0.32015,-0.018799 0.0936,0.0833 0.10206,0.2265601 0.0188,0.32024 z M 3.96882,3.9681401 H 2.1545 c -0.0626,0 -0.1134,-0.0508 -0.1134,-0.1134001 V 3.74133 c 0,-0.0626 0.0508,-0.11338 0.1134,-0.11338 h 1.81432 c 0.0626,0 0.11341,0.0508 0.11341,0.11338 v 0.11341 c -10e-6,0.0626 -0.0508,0.1134001 -0.11341,0.1134001 z m 0,-1.0205601 H 2.1545 c -0.0626,0 -0.1134,-0.0508 -0.1134,-0.1133998 V 2.72078 c 0,-0.0626 0.0508,-0.11339 0.1134,-0.11339 h 1.81432 c 0.0626,0 0.11341,0.0508 0.11341,0.11339 V 2.8341802 C 4.08222,2.8967802 4.03143,2.94758 3.96882,2.94758 Z M 3.40185,4.8753101 H 2.1545 c -0.0626,0 -0.1134,-0.0508 -0.1134,-0.1134102 V 4.6485 c 0,-0.0626 0.0508,-0.1133999 0.1134,-0.1133999 h 1.24735 c 0.0626,0 0.1134,0.0508 0.1134,0.1133999 v 0.1133999 c -1e-5,0.0626 -0.0508,0.1134102 -0.1134,0.1134102 z M 3.17506,5.895857 H 2.1545 c -0.0626,0 -0.1134,-0.0508 -0.1134,-0.1133999 V 5.669057 c 0,-0.0626 0.0508,-0.1133899 0.1134,-0.1133899 h 1.02056 c 0.0626,0 0.1134,0.0508 0.1134,0.1133899 v 0.1134001 c -1e-5,0.0626 -0.0508,0.1133999 -0.1134,0.1133999 z M 1.824,2.52823 1.40638,2.9980602 c -0.0206,0.023101 -0.0492,0.0351 -0.0781,0.0351 -0.0229,0 -0.0459,-0.008 -0.0651,-0.0229 l -0.261,-0.2088203 c -0.045,-0.036 -0.0523,-0.10169 -0.0163,-0.14673 0.036,-0.0451 0.10173,-0.0523 0.14675,-0.0163 L 1.31622,2.7852801 1.668,2.38952 c 0.0383,-0.0431 0.10429,-0.047 0.14739,-0.009 0.0431,0.0384 0.047,0.1043 0.009,0.14743 z m 0,1.00887 -0.41762,0.4698302 c -0.0206,0.023101 -0.0492,0.0351 -0.0781,0.0351 -0.0229,0 -0.0459,-0.008 -0.0651,-0.0229 l -0.261,-0.2088203 c -0.045,-0.036 -0.0523,-0.10169 -0.0163,-0.1467199 0.036,-0.0451 0.10173,-0.0523 0.14675,-0.0163 L 1.31622,3.7941599 1.668,3.3984001 c 0.0383,-0.0431 0.10429,-0.047 0.14739,-0.009 0.0431,0.0384 0.047,0.1043199 0.009,0.1474301 z m 0,0.96485 -0.41762,0.46981 c -0.0206,0.023101 -0.0492,0.035 -0.0781,0.035 -0.0229,0 -0.0459,-0.008 -0.0651,-0.0229 l -0.261,-0.20881 c -0.045,-0.036 -0.0523,-0.1017098 -0.0163,-0.1467199 0.036,-0.0451 0.10173,-0.0523 0.14675,-0.0163 l 0.18359,0.14687 0.35178,-0.39575 c 0.0383,-0.0431 0.10429,-0.047 0.14739,-0.009 0.0431,0.0384 0.047,0.1043101 0.009,0.1474499 z m 0,0.9716301 -0.41762,0.469827 c -0.0206,0.023201 -0.0492,0.035 -0.0781,0.035 -0.0229,0 -0.0459,-0.007 -0.0651,-0.0229 l -0.261,-0.2088102 c -0.045,-0.036 -0.0523,-0.1017 -0.0163,-0.1467199 0.036,-0.0451 0.10173,-0.0523 0.14675,-0.016301 L 1.31622,5.7305462 1.668,5.3347991 c 0.0383,-0.0431 0.10429,-0.047 0.14739,-0.009 0.0431,0.0384 0.047,0.1043001 0.009,0.14743 z"
     id="path26270"
     style="color:#000000;clip-rule:nonzero;display:inline;overflow:visible;visibility:visible;opacity:1;isolation:auto;mix-blend-mode:normal;color-interpolation:sRGB;color-interpolation-filters:linearRGB;solid-color:#000000;solid-opacity:1;fill:#373737;fill-opacity:1;fill-rule:nonzero;stroke-width:0.56371534;stroke-linecap:butt;stroke-linejoin:miter;stroke-miterlimit:4;stroke-dasharray:none;stroke-dashoffset:0;stroke-opacity:1;color-rendering:auto;image-rendering:auto;shape-rendering:auto;text-rendering:auto;enable-background:accumulate" />
</svg>
