<?xml version="1.0" encoding="UTF-8" standalone="no"?>
<svg
   xmlns:dc="http://purl.org/dc/elements/1.1/"
   xmlns:cc="http://creativecommons.org/ns#"
   xmlns:rdf="http://www.w3.org/1999/02/22-rdf-syntax-ns#"
   xmlns:svg="http://www.w3.org/2000/svg"
   xmlns="http://www.w3.org/2000/svg"
   id="svg32103"
   version="1.1"
   viewBox="0 0 6.6143756 6.6146073"
   height="6.6146073mm"
   width="6.6143756mm">
  <defs
     id="defs32097" />
  <metadata
     id="metadata32100">
    <rdf:RDF>
      <cc:Work
         rdf:about="">
        <dc:format>image/svg+xml</dc:format>
        <dc:type
           rdf:resource="http://purl.org/dc/dcmitype/StillImage" />
        <dc:title></dc:title>
      </cc:Work>
    </rdf:RDF>
  </metadata>
  <path
     d="m 5.653893,0.9765594 c -1.28717,-1.29578 -3.38098,-1.30306 -4.67716995,-0.0158 -1.2962,1.2872 -1.30291,3.38099 -0.0163,4.67718 1.28735995,1.29599 3.38117995,1.30314 4.67735995,0.0158 1.29601,-1.2872 1.30292,-3.38097 0.0158,-4.6772 z m -0.91407,-0.15338 -0.70151,0.69668 c -0.46332,-0.18928 -0.98521,-0.19116 -1.44979,-0.005 l -0.69668,-0.7015 c 0.88156,-0.49984 1.96999,-0.49607 2.84798,0.01 z m -3.22465,3.20285 -0.70149995,0.69668 c -0.50006,-0.88156 -0.49626,-1.97022 0.01,-2.84841 l 0.69691995,0.70148 c -0.18952,0.46335 -0.19117,0.98564 -0.005,1.45025 z m 0.35947,1.76516 0.70172,-0.69665 c 0.46311,0.18929 0.9854,0.19116 1.44977,0.005 l 0.69669,0.70151 c -0.88133,0.49984 -1.97019,0.49626 -2.84818,-0.01 z m 2.48517,-1.42398 c -0.58463,0.58043 -1.53206,0.57708 -2.1127,-0.007 -0.58042,-0.5844 -0.57705,-1.53204 0.007,-2.11246 0.58464,-0.58042 1.53207,-0.57729 2.1125,0.007 0.58044,0.5844 0.57726,1.53203 -0.008,2.11267 z m 0.73445,-0.32882 c 0.18928,-0.46331 0.19136,-0.9854 0.005,-1.45001 l 0.70152,-0.69668 c 0.49983,0.88136 0.49625,1.97002 -0.01,2.84841 l -0.69665,-0.70172 z"
     id="path26272"
     style="display:inline;fill:#515151;fill-opacity:1;stroke-width:0.26458332" />
</svg>
