<svg xmlns="http://www.w3.org/2000/svg" viewBox="0 0 6.6143756 6.6146073" width="6.6144mm" version="1.1" height="6.6146mm">
<path d="m5.6539 0.97656c-1.2872-1.2958-3.381-1.3031-4.6772-0.0158-1.2962 1.2872-1.3029 3.381-0.0163 4.6772 1.2874 1.296 3.3812 1.3031 4.6774 0.0158 1.296-1.2872 1.3029-3.381 0.0158-4.6772zm-0.91407-0.15338-0.70151 0.69668c-0.46332-0.18928-0.98521-0.19116-1.4498-0.005l-0.69668-0.7015c0.88156-0.49984 1.97-0.49607 2.848 0.01zm-3.2246 3.2028-0.7015 0.69668c-0.50006-0.88156-0.49626-1.9702 0.01-2.8484l0.69692 0.70148c-0.18952 0.46335-0.19117 0.98564-0.005 1.4502zm0.35947 1.7652 0.70172-0.69665c0.46311 0.18929 0.9854 0.19116 1.4498 0.005l0.69669 0.70151c-0.88133 0.49984-1.9702 0.49626-2.8482-0.01zm2.4852-1.424c-0.58463 0.58043-1.5321 0.57708-2.1127-0.007-0.58042-0.5844-0.57705-1.532 0.007-2.1125 0.58464-0.58042 1.5321-0.57729 2.1125 0.007 0.58044 0.5844 0.57726 1.532-0.008 2.1127zm0.73445-0.32882c0.18928-0.46331 0.19136-0.9854 0.005-1.45l0.70152-0.69668c0.49983 0.88136 0.49625 1.97-0.01 2.8484l-0.69665-0.70172z" fill="currentColor"/>
</svg>
