<!--
  ~ Copyright © 2017. All rights reserved.
  ~ The following work may not be studied, edited, copied, shared by any means without the express consent of its author.
  ~ You can contact the author on alexandre.bonneau@linuxfr.eu.
  -->
<svg xmlns="http://www.w3.org/2000/svg" version="1.1">
<symbol id="logo_AutoNumeric_flat" viewBox="0 0 17.55139 17.119371">
<path d="m8.4326-2.9291e-7 -3.4034 8.0264h-3.5052v1.0413h3.0732l-0.66 1.5243h-2.4133v1.0413h1.9813l-0.35553 0.83819c-0.77893 1.8457-1.3461 2.9974-1.7017 3.4546-0.33867 0.44027-0.82144 0.67717-1.448 0.71107v0.48266h5.0292v-0.48266c-1.1515 0-1.727-0.34701-1.727-1.0413 0-0.3048 0.0676-0.63504 0.20309-0.99064l1.1684-2.9719h6.6553l1.0413 2.4386c0.32175 0.72813 0.48266 1.2953 0.48266 1.7017 0 0.32172-0.12685 0.54189-0.38085 0.66042-0.254 0.11849-0.72 0.18619-1.3973 0.20309v0.48266h6.4771v-0.48266c-0.57574-0.0339-0.99037-0.16911-1.2444-0.40618-0.254-0.254-0.60153-0.85525-1.0418-1.8035l-1.219-2.794h2.1084v-1.041h-2.565l-0.661-1.5243h3.2262v-1.0413h-3.682l-3.5315-8.0264zm-0.4062 3.6065l1.8542 4.4199h-3.7083zm-2.2862 5.4612h4.5978l0.635 1.5243h-5.8674z" fill="currentColor"/>
</symbol>
<symbol id="help" viewBox="0 0 6.6143756 6.6146073">
<path d="m5.6539 0.97656c-1.2872-1.2958-3.381-1.3031-4.6772-0.0158-1.2962 1.2872-1.3029 3.381-0.0163 4.6772 1.2874 1.296 3.3812 1.3031 4.6774 0.0158 1.296-1.2872 1.3029-3.381 0.0158-4.6772zm-0.91407-0.15338-0.70151 0.69668c-0.46332-0.18928-0.98521-0.19116-1.4498-0.005l-0.69668-0.7015c0.88156-0.49984 1.97-0.49607 2.848 0.01zm-3.2246 3.2028-0.7015 0.69668c-0.50006-0.88156-0.49626-1.9702 0.01-2.8484l0.69692 0.70148c-0.18952 0.46335-0.19117 0.98564-0.005 1.4502zm0.35947 1.7652 0.70172-0.69665c0.46311 0.18929 0.9854 0.19116 1.4498 0.005l0.69669 0.70151c-0.88133 0.49984-1.9702 0.49626-2.8482-0.01zm2.4852-1.424c-0.58463 0.58043-1.5321 0.57708-2.1127-0.007-0.58042-0.5844-0.57705-1.532 0.007-2.1125 0.58464-0.58042 1.5321-0.57729 2.1125 0.007 0.58044 0.5844 0.57726 1.532-0.008 2.1127zm0.73445-0.32882c0.18928-0.46331 0.19136-0.9854 0.005-1.45l0.70152-0.69668c0.49983 0.88136 0.49625 1.97-0.01 2.8484l-0.69665-0.70172z" fill="currentColor"/>
</symbol>
<symbol id="checklist_ticked" viewBox="0 0 6.4635201 7.9369669">
<path d="m3.2918 0.56629h-0.1746c-0.0933 0-0.16895-0.0756-0.16895-0.16895v-0.005c0.0001-0.21669-0.1756-0.39234-0.3923-0.39234h-0.009c-0.2167 0-0.3923 0.17565-0.3923 0.39233v0.005c0 0.0933-0.0756 0.16895-0.16895 0.16895h-0.1746c-0.186 0-0.33679 0.15079-0.33679 0.33678v0.007c0 0.18601 0.15079 0.33678 0.33679 0.33678h1.481c0.186 0 0.33678-0.15077 0.33678-0.33678v-0.007c-0.0001-0.18595-0.1509-0.33673-0.3369-0.33673zm-0.74046 0c-0.094 0-0.1701-0.0762-0.1701-0.1701s0.0762-0.1701 0.1701-0.1701 0.17008 0.0762 0.17008 0.1701-0.0762 0.1701-0.17008 0.1701zm0.7573 6.5769h-2.855c-0.25054 0-0.4536-0.2031-0.4536-0.4536v-5.443c0-0.25045 0.20306-0.45353 0.34017-0.45353h0.91897c-0.008 0.0377-0.0118 0.0767-0.0118 0.11683 0 0.31075 0.25282 0.56356 0.56359 0.56356h1.4809c0.31079 0 0.56359-0.25281 0.56359-0.57043 0-0.0377-0.004-0.0744-0.0111-0.10996h0.69149c0.3639 0 0.56698 0.20308 0.56698 0.45358v3.4076c-0.0377-0.00201-0.0752-0.005-0.1134-0.005-0.15686 0-0.30831 0.022101-0.45358 0.0597v-2.6679h-3.9688v4.5358h2.6138c0.0124 0.19932 0.056 0.3901 0.12785 0.56698zm1.6808-2.1545c-0.81414 0-1.4741 0.66-1.4741 1.4741 0 0.81413 0.65999 1.4742 1.4741 1.4742 0.81415 0 1.4741-0.66 1.4741-1.4741 0-0.81413-0.66-1.4741-1.4741-1.4741zm0.9632 1.1713-0.9071 1.0205c-0.0447 0.0503-0.10692 0.0761-0.1696 0.0761-0.0497 0-0.0998-0.016301-0.14158-0.0497l-0.567-0.4536c-0.0978-0.0782-0.11367-0.22092-0.0354-0.31872 0.0782-0.0979 0.22097-0.11372 0.31876-0.0354l0.3988 0.319 0.7641-0.8596c0.0831-0.0936 0.22651-0.1021 0.32015-0.018799 0.0936 0.0833 0.10206 0.22656 0.0188 0.32024zm-1.9838-2.1919h-1.8143c-0.0626 0-0.1134-0.0508-0.1134-0.1134v-0.1134c0-0.0626 0.0508-0.11338 0.1134-0.11338h1.8143c0.0626 0 0.11341 0.0508 0.11341 0.11338v0.11341c-0.00001 0.0626-0.0508 0.1134-0.11341 0.1134zm0-1.0206h-1.8143c-0.0626 0-0.1134-0.0508-0.1134-0.1134v-0.1133c0-0.0626 0.0508-0.11339 0.1134-0.11339h1.8143c0.0626 0 0.11341 0.0508 0.11341 0.11339v0.1134c0 0.0626-0.0508 0.1134-0.1134 0.1134zm-0.567 1.9278h-1.2473c-0.0626 0-0.1134-0.0508-0.1134-0.11341v-0.1134c0-0.0626 0.0508-0.1134 0.1134-0.1134h1.2474c0.0626 0 0.1134 0.0508 0.1134 0.1134v0.1134c-0.00001 0.0626-0.0508 0.11341-0.1134 0.11341zm-0.2267 1.0206h-1.0206c-0.0626 0-0.1134-0.0508-0.1134-0.1134v-0.1134c0-0.0626 0.0508-0.11339 0.1134-0.11339h1.0206c0.0626 0 0.1134 0.0508 0.1134 0.11339v0.1134c-0.00001 0.0626-0.0508 0.1134-0.1134 0.1134zm-1.3511-3.3677-0.4176 0.4699c-0.0206 0.023101-0.0492 0.0351-0.0781 0.0351-0.0229 0-0.0459-0.008-0.0651-0.0229l-0.261-0.20882c-0.045-0.036-0.0523-0.10169-0.0163-0.14673 0.036-0.0451 0.10173-0.0523 0.14675-0.0163l0.1836 0.1468 0.3518-0.3958c0.0383-0.0431 0.10429-0.047 0.14739-0.009 0.0431 0.0384 0.047 0.1043 0.009 0.14743zm0 1.0089-0.41762 0.46983c-0.0206 0.023101-0.0492 0.0351-0.0781 0.0351-0.0229 0-0.0459-0.008-0.0651-0.0229l-0.261-0.20882c-0.045-0.036-0.0523-0.10169-0.0163-0.14672 0.036-0.0451 0.10173-0.0523 0.14675-0.0163l0.1836 0.1469 0.3518-0.3958c0.0383-0.0431 0.10429-0.047 0.14739-0.009 0.0431 0.0384 0.047 0.10432 0.009 0.14743zm0 0.96485-0.41762 0.46981c-0.0206 0.023101-0.0492 0.035-0.0781 0.035-0.0229 0-0.0459-0.008-0.0651-0.0229l-0.261-0.20881c-0.045-0.036-0.0523-0.10171-0.0163-0.14672 0.036-0.0451 0.10173-0.0523 0.14675-0.0163l0.18359 0.14687 0.35178-0.39575c0.0383-0.0431 0.10429-0.047 0.14739-0.009 0.0431 0.0384 0.047 0.10431 0.009 0.14745zm0 0.97163-0.41762 0.46983c-0.0206 0.023201-0.0492 0.035-0.0781 0.035-0.0229 0-0.0459-0.007-0.0651-0.0229l-0.261-0.20881c-0.045-0.036-0.0523-0.1017-0.0163-0.14672 0.036-0.0451 0.10173-0.0523 0.14675-0.016301l0.1836 0.1468 0.3518-0.3957c0.0383-0.0431 0.10429-0.047 0.14739-0.009 0.0431 0.0384 0.047 0.1043 0.009 0.14743z" fill="currentColor"/>
</symbol>
</svg>
